<svg width="183" height="224" viewBox="0 0 183 224" fill="none" xmlns="http://www.w3.org/2000/svg">
<g clip-path="url(#clip0_410_25)">
<path d="M15.3818 165.88L-7.28468 109.593C-7.90322 106.085 -5.18833 102.674 -1.21562 101.973L101.139 110.509C105.106 109.81 108.829 112.086 109.448 115.594L131.09 145.618C131.709 149.126 128.994 152.537 125.021 153.237L23.6859 170.964C19.7181 171.664 16.0002 169.387 15.3818 165.88Z" fill="#F0F0F0"/>
<path d="M13.7781 126.765L104.118 121.53" stroke="#CACACA" stroke-width="4.00047" stroke-linecap="round"/>
<path d="M17.2443 137.011L109.793 129.026" stroke="#CACACA" stroke-width="4.00047" stroke-linecap="round"/>
<path d="M21.4182 148.482L115.776 138.028" stroke="#CACACA" stroke-width="4.00047" stroke-linecap="round"/>
<path d="M106.597 31.7817L115.985 105.167C116.2 109.273 112.769 112.791 108.322 113.024L-4.28771 118.592C-8.7346 118.825 -12.5141 115.685 -12.7293 111.579L-21.61 27.1712C-21.8252 23.0649 -18.3946 19.5475 -13.9477 19.3144L98.1553 24.7679C102.602 24.5348 106.382 27.6763 106.597 31.7817Z" fill="#BABAF5"/>
<path d="M105.053 35.3582C28.258 21.282 -12.5143 115.684 -21.6102 27.171C-21.8254 23.0646 -18.3948 19.5473 -13.9479 19.3142L98.1552 24.7677C102.602 24.5346 104.838 31.2518 105.053 35.3582Z" fill="#BABAF5"/>
<path d="M-1.50269 94.5522L1.33618 36.4663L30.9509 103.809V55.938L37.4421 80.6841V66.4844H62.1892V33.624L88.1521 100.562L93.426 76.626H103.163" stroke="#4C4CCC" stroke-width="6" stroke-linecap="round" stroke-linejoin="round"/>
<path d="M0.101392 174.697L-12.696 178.613" stroke="#2C794A" stroke-width="7.00316" stroke-linecap="round"/>
<path d="M29.1671 203.544L24.5872 190.969" stroke="#1FB15A" stroke-width="7.00316" stroke-linecap="round"/>
<path d="M8.46877 189.767L1.97852 201.478" stroke="#8DDDAD" stroke-width="7.00647" stroke-linecap="round"/>
<path d="M182.519 192.132C172.976 188.934 163.415 185.696 154.801 180.501C150.497 178.092 146.357 175.4 142.409 172.444C141.215 171.51 140.071 170.513 138.982 169.457C136.042 165.131 119.917 151.943 115.529 150.063C112.084 148.576 108.614 147.142 105.185 145.619C103.227 144.97 100.779 142.495 98.873 144.559C98.8519 144.558 98.8306 144.559 98.8098 144.56C95.0758 144.695 87.4332 145.852 87.4332 145.852C87.4332 145.852 55.808 133.17 49.8239 139.914C48.676 144.518 63.8536 151.548 66.8338 153.291C69.5892 155.175 72.4957 156.829 75.5235 158.235C77.5032 158.952 81.054 166.157 81.3393 169.93C81.2145 170.226 65.574 163.605 62.6161 165.086C59.6581 166.567 55.571 172.919 61.0822 177.506C64.8419 179.527 68.8321 177.961 75.4057 180.932C82.6355 184.199 92.8395 192.691 92.8395 192.691C110.002 196.89 106.39 193.954 112.453 194.062C113.65 194.125 149.222 218.074 155.366 223.107" fill="#F9D4C4"/>
<path d="M76.4912 38.0681L76.5212 38.0621L76.5512 38.0561L76.5812 38.0501L76.6112 38.0441L78.5042 37.6801L80.3942 37.3161L82.2822 36.9521L84.1672 36.5891L86.5062 36.1391L89.0862 35.6391L91.1712 35.2391L92.0292 35.0741L99.4762 17.9141C99.4762 17.9141 100.497 18.6991 102.033 19.8771C103.569 21.0551 105.618 22.6271 107.68 24.2001C109.742 25.7731 111.809 27.3381 113.38 28.5111C114.951 29.6841 116.021 30.4621 116.08 30.4501V30.4451L116.074 30.4391L116.774 30.2751L118.474 29.8751L120.574 29.3841L122.474 28.9411L124.38 28.4961L126.28 28.0521L128.18 27.6081L130.08 27.1651C130.038 27.1096 129.991 27.0575 129.94 27.0091C129.887 26.9578 129.83 26.9103 129.769 26.8671C129.705 26.8207 129.639 26.7786 129.569 26.7411C129.493 26.7006 129.415 26.6649 129.334 26.6341C129.28 26.5741 129.221 26.5151 129.157 26.4571C129.093 26.3991 129.025 26.3424 128.951 26.2871C128.877 26.2318 128.798 26.1784 128.714 26.1271C128.63 26.0758 128.541 26.0261 128.446 25.9781C126.361 24.3928 124.28 22.8058 122.203 21.2171C120.127 19.6284 118.054 18.0368 115.985 16.4421C113.919 14.8488 111.85 13.2551 109.78 11.6611C107.71 10.0671 105.644 8.47577 103.58 6.8871C103.047 6.47377 102.511 6.05943 101.973 5.6441L100.365 4.4001L98.7652 3.1541C98.2319 2.73877 97.6969 2.32443 97.1602 1.9111C97.0802 1.8621 97.0022 1.8111 96.9242 1.7551C96.8462 1.6991 96.7692 1.6421 96.6932 1.5821C96.6172 1.5221 96.5402 1.4601 96.4652 1.3971C96.3902 1.3341 96.3142 1.2691 96.2382 1.2041L95.4922 1.3191L94.7452 1.4331L93.9982 1.5461L93.2502 1.6571L92.4282 3.3931L91.6042 5.1331L90.7782 6.8761L89.9462 8.6201C89.6796 9.17543 89.4159 9.73177 89.1552 10.2891L88.3652 11.9621C88.0986 12.5208 87.8342 13.0794 87.5722 13.6381C87.3102 14.1968 87.0436 14.7558 86.7722 15.3151V15.3051V15.2951V15.2851V15.2751L86.7672 15.2861L86.7622 15.2971L86.7572 15.3081L86.7522 15.3191V15.3301V15.3391V15.3481V15.3571V15.3661L86.3522 16.2251L85.9462 17.0841L85.5392 17.9431L85.1182 18.8001C84.8609 19.3481 84.6029 19.8961 84.3442 20.4441C84.0856 20.9921 83.8259 21.5404 83.5652 22.0891L82.7832 23.7361L82.0002 25.3871L81.1942 27.1001L80.3842 28.8131C80.1142 29.3851 79.8436 29.9571 79.5722 30.5291C79.3009 31.1011 79.0286 31.6738 78.7552 32.2471V32.2571V32.2671V32.2771V32.2871L78.6112 32.5871L78.4672 32.8871L78.3232 33.1921L78.1782 33.4971L78.1722 33.5111V33.5171V33.5231V33.5291V33.5351V33.5441V33.5531V33.5621V33.5711V33.5801L77.9262 34.0991L77.6802 34.6181L77.4342 35.1381L77.1872 35.6581L77.0232 36.0041L76.8592 36.3501L76.6952 36.6961L76.5312 37.0421V37.0341L76.4872 37.1271L76.4432 37.2201L76.3992 37.3131L76.3552 37.4061L76.3642 37.4221L76.3742 37.4381L76.3842 37.4541L76.3942 37.4701C76.3945 37.5159 76.3972 37.5616 76.4022 37.6071C76.4075 37.6528 76.4152 37.6982 76.4252 37.7431C76.4354 37.7884 76.4481 37.8332 76.4632 37.8771C76.4784 37.9217 76.4961 37.9655 76.5162 38.0081L76.5222 38.0201L76.5282 38.0321L76.5342 38.0441L76.5402 38.0561" fill="#1FB15A"/>
</g>
<defs>
<clipPath id="clip0_410_25">
<rect width="183" height="224" fill="white"/>
</clipPath>
</defs>
</svg>
